<svg width="22" height="22" viewBox="0 0 22 22" fill="none" xmlns="http://www.w3.org/2000/svg">
<path d="M3.5 15.5C2 16.76 1.5 20.5 1.5 20.5C1.5 20.5 5.24 20 6.5 18.5C7.21 17.66 7.2 16.37 6.41 15.59C6.02131 15.219 5.50929 15.0046 4.97223 14.988C4.43516 14.9714 3.91088 15.1537 3.5 15.5ZM11 14L8 11C8.53214 9.61943 9.2022 8.29606 10 7.05C11.1652 5.18699 12.7876 3.65305 14.713 2.59409C16.6384 1.53513 18.8027 0.986371 21 1C21 3.72 20.22 8.5 15 12C13.7367 12.7984 12.3967 13.4684 11 14Z" stroke="#072547" stroke-width="2" stroke-linecap="round" stroke-linejoin="round"/>
<path d="M8 11H3C3 11 3.55 7.97 5 7C6.62 5.92 10 7 10 7M11 14V19C11 19 14.03 18.45 15 17C16.08 15.38 15 12 15 12" stroke="#072547" stroke-width="2" stroke-linecap="round" stroke-linejoin="round"/>
</svg>
